<mxfile host="65bd71144e">
    <diagram id="NiJen_jeVoNu3D8egJZx" name="Page-1">
        <mxGraphModel dx="1467" dy="1014" grid="1" gridSize="10" guides="1" tooltips="1" connect="1" arrows="1" fold="1" page="1" pageScale="1" pageWidth="827" pageHeight="1169" math="0" shadow="0">
            <root>
                <mxCell id="0"/>
                <mxCell id="1" parent="0"/>
                <mxCell id="2" value="" style="rounded=0;whiteSpace=wrap;html=1;fillColor=#F9C784;" vertex="1" parent="1">
                    <mxGeometry x="80" y="550" width="790" height="400" as="geometry"/>
                </mxCell>
                <mxCell id="3" value="" style="rounded=0;whiteSpace=wrap;html=1;strokeColor=#000000;fontSize=22;fontColor=#FFFFFF;fillColor=#4e598c;gradientColor=none;" vertex="1" parent="1">
                    <mxGeometry x="80" y="550" width="110" height="400" as="geometry"/>
                </mxCell>
                <mxCell id="4" value="" style="rounded=0;whiteSpace=wrap;html=1;fillColor=#4E598C;" vertex="1" parent="1">
                    <mxGeometry x="80" y="550" width="790" height="50" as="geometry"/>
                </mxCell>
                <mxCell id="11" value="" style="rounded=1;whiteSpace=wrap;html=1;strokeColor=#000000;fillColor=#6F7FC7;" vertex="1" parent="1">
                    <mxGeometry x="86" y="663" width="94" height="30" as="geometry"/>
                </mxCell>
                <mxCell id="5" value="Beerlog" style="text;html=1;strokeColor=none;fillColor=none;align=center;verticalAlign=middle;whiteSpace=wrap;rounded=0;fontColor=#FFFFFF;fontSize=22;fontStyle=1" vertex="1" parent="1">
                    <mxGeometry x="160" y="560" width="60" height="30" as="geometry"/>
                </mxCell>
                <mxCell id="6" value="&lt;span style=&quot;font-size: 14px;&quot;&gt;Archives&lt;br&gt;&lt;br&gt;Probe 1&lt;br&gt;Probe 2&lt;br&gt;Probe 3&lt;br&gt;&lt;/span&gt;" style="text;html=1;strokeColor=none;fillColor=none;align=center;verticalAlign=middle;whiteSpace=wrap;rounded=0;fontSize=22;fontColor=#FFFFFF;" vertex="1" parent="1">
                    <mxGeometry x="100" y="660" width="60" height="30" as="geometry"/>
                </mxCell>
                <mxCell id="7" value="+" style="rounded=1;whiteSpace=wrap;html=1;strokeColor=#000000;fontSize=14;fontColor=#FFFFFF;fillColor=#FF8C42;gradientColor=none;" vertex="1" parent="1">
                    <mxGeometry x="90" y="750" width="90" height="20" as="geometry"/>
                </mxCell>
                <mxCell id="8" value="" style="rounded=1;whiteSpace=wrap;html=1;strokeColor=#000000;fillColor=#6F7FC7;" vertex="1" parent="1">
                    <mxGeometry x="84.10000000000002" y="555" width="40" height="40" as="geometry"/>
                </mxCell>
                <mxCell id="9" value="" style="html=1;verticalLabelPosition=bottom;align=center;labelBackgroundColor=#ffffff;verticalAlign=top;strokeWidth=2;strokeColor=#FFFFFF;shadow=0;dashed=0;shape=mxgraph.ios7.icons.most_viewed;pointerEvents=1" vertex="1" parent="1">
                    <mxGeometry x="89.99999999999996" y="563.6" width="28.2" height="22.8" as="geometry"/>
                </mxCell>
                <mxCell id="10" value="Disconnect" style="rounded=1;whiteSpace=wrap;html=1;strokeColor=#000000;fontSize=14;fontColor=#FFFFFF;fillColor=#FF8C42;gradientColor=none;" vertex="1" parent="1">
                    <mxGeometry x="770" y="556.4" width="90" height="33.6" as="geometry"/>
                </mxCell>
                <mxCell id="13" value="" style="rounded=0;whiteSpace=wrap;html=1;" vertex="1" parent="1">
                    <mxGeometry x="220" y="633" width="410" height="117" as="geometry"/>
                </mxCell>
                <mxCell id="14" value="" style="rounded=0;whiteSpace=wrap;html=1;" vertex="1" parent="1">
                    <mxGeometry x="220" y="790" width="410" height="117" as="geometry"/>
                </mxCell>
                <mxCell id="15" value="Temperature" style="text;html=1;strokeColor=none;fillColor=none;align=center;verticalAlign=middle;whiteSpace=wrap;rounded=0;" vertex="1" parent="1">
                    <mxGeometry x="230" y="603" width="60" height="30" as="geometry"/>
                </mxCell>
                <mxCell id="16" value="Density" style="text;html=1;strokeColor=none;fillColor=none;align=center;verticalAlign=middle;whiteSpace=wrap;rounded=0;" vertex="1" parent="1">
                    <mxGeometry x="220" y="760" width="60" height="30" as="geometry"/>
                </mxCell>
                <mxCell id="17" value="" style="rounded=1;whiteSpace=wrap;html=1;" vertex="1" parent="1">
                    <mxGeometry x="700" y="633" width="150" height="157" as="geometry"/>
                </mxCell>
                <mxCell id="18" value="&lt;b&gt;&lt;u&gt;Last recorded :&lt;/u&gt;&lt;/b&gt;&lt;br&gt;&lt;br&gt;Temperature :&amp;nbsp;&lt;br style=&quot;font-size: 18px;&quot;&gt;&lt;font style=&quot;font-size: 19px;&quot;&gt;&amp;nbsp; &amp;nbsp;23.5 Â°C&lt;/font&gt;&lt;br style=&quot;font-size: 18px;&quot;&gt;Float density :&amp;nbsp;&lt;br&gt;&lt;span style=&quot;font-size: 19px;&quot;&gt;&amp;nbsp; &amp;nbsp;1032&lt;/span&gt;&lt;br&gt;&lt;div style=&quot;&quot;&gt;&lt;span style=&quot;background-color: initial;&quot;&gt;Reafraction densityt :&lt;/span&gt;&lt;/div&gt;&lt;span style=&quot;font-size: 19px;&quot;&gt;&amp;nbsp; &amp;nbsp;1031&lt;/span&gt;&lt;div style=&quot;&quot;&gt;&lt;span style=&quot;background-color: initial;&quot;&gt;&amp;nbsp;&lt;/span&gt;&lt;/div&gt;&lt;div style=&quot;&quot;&gt;&lt;span style=&quot;background-color: initial;&quot;&gt;&lt;br&gt;&lt;/span&gt;&lt;/div&gt;" style="text;html=1;strokeColor=none;fillColor=none;align=left;verticalAlign=top;whiteSpace=wrap;rounded=0;" vertex="1" parent="1">
                    <mxGeometry x="719" y="640" width="140" height="120" as="geometry"/>
                </mxCell>
                <mxCell id="20" value="Archive this monitoring" style="rounded=1;whiteSpace=wrap;html=1;strokeColor=#000000;fontSize=12;fontColor=#FFFFFF;fillColor=#FF8C42;gradientColor=none;" vertex="1" parent="1">
                    <mxGeometry x="730" y="800" width="90" height="33.6" as="geometry"/>
                </mxCell>
                <mxCell id="21" value="" style="curved=1;endArrow=none;html=1;fontSize=12;exitX=0.024;exitY=0.744;exitDx=0;exitDy=0;exitPerimeter=0;entryX=0.976;entryY=0.402;entryDx=0;entryDy=0;entryPerimeter=0;endFill=0;" edge="1" parent="1" source="13" target="13">
                    <mxGeometry width="50" height="50" relative="1" as="geometry">
                        <mxPoint x="390" y="520" as="sourcePoint"/>
                        <mxPoint x="440" y="470" as="targetPoint"/>
                        <Array as="points">
                            <mxPoint x="290" y="680"/>
                            <mxPoint x="380" y="690"/>
                            <mxPoint x="400" y="670"/>
                            <mxPoint x="470" y="692"/>
                        </Array>
                    </mxGeometry>
                </mxCell>
                <mxCell id="22" value="" style="curved=1;endArrow=none;html=1;fontSize=12;exitX=0.024;exitY=0.171;exitDx=0;exitDy=0;exitPerimeter=0;endFill=0;" edge="1" parent="1" source="14">
                    <mxGeometry width="50" height="50" relative="1" as="geometry">
                        <mxPoint x="228.83999999999992" y="849.048" as="sourcePoint"/>
                        <mxPoint x="609" y="890" as="targetPoint"/>
                        <Array as="points">
                            <mxPoint x="289" y="810"/>
                            <mxPoint x="399" y="850"/>
                            <mxPoint x="460" y="890"/>
                        </Array>
                    </mxGeometry>
                </mxCell>
                <mxCell id="23" value="" style="curved=1;endArrow=none;html=1;fontSize=12;exitX=0.024;exitY=0.171;exitDx=0;exitDy=0;exitPerimeter=0;endFill=0;" edge="1" parent="1">
                    <mxGeometry width="50" height="50" relative="1" as="geometry">
                        <mxPoint x="231.83999999999992" y="816.0070000000001" as="sourcePoint"/>
                        <mxPoint x="611" y="890" as="targetPoint"/>
                        <Array as="points">
                            <mxPoint x="291" y="810"/>
                            <mxPoint x="401" y="856"/>
                            <mxPoint x="471" y="896"/>
                        </Array>
                    </mxGeometry>
                </mxCell>
            </root>
        </mxGraphModel>
    </diagram>
</mxfile>